<svg width="56" height="54" viewBox="0 0 56 54" fill="none" xmlns="http://www.w3.org/2000/svg">
<path d="M41 0H15C6.71573 0 0 6.71573 0 15V39C0 47.2843 6.71573 54 15 54H41C49.2843 54 56 47.2843 56 39V15C56 6.71573 49.2843 0 41 0Z" fill="#EDFCF6"/>
<path d="M25.3254 36.5444C25.21 36.6598 25.0729 36.7514 24.9221 36.8139C24.7713 36.8764 24.6097 36.9085 24.4464 36.9085C24.2832 36.9085 24.1215 36.8764 23.9707 36.8139C23.8199 36.7514 23.6828 36.6598 23.5674 36.5444L16.5464 29.5234C16.3732 29.3503 16.2358 29.1448 16.142 28.9185C16.0483 28.6923 16 28.4498 16 28.2049C16 27.96 16.0483 27.7175 16.142 27.4913C16.2358 27.2651 16.3732 27.0595 16.5464 26.8864L17.4254 26.0074C17.5985 25.8342 17.8041 25.6968 18.0303 25.603C18.2565 25.5093 18.499 25.461 18.7439 25.461C18.9888 25.461 19.2313 25.5093 19.4575 25.603C19.6838 25.6968 19.8893 25.8342 20.0624 26.0074L24.4464 30.3934L36.2904 18.5464C36.4635 18.3732 36.6691 18.2358 36.8953 18.142C37.1215 18.0483 37.364 18 37.6089 18C37.8538 18 38.0963 18.0483 38.3225 18.142C38.5488 18.2358 38.7543 18.3732 38.9274 18.5464L39.8064 19.4254C39.9796 19.5985 40.117 19.8041 40.2108 20.0303C40.3046 20.2565 40.3528 20.499 40.3528 20.7439C40.3528 20.9888 40.3046 21.2313 40.2108 21.4575C40.117 21.6838 39.9796 21.8893 39.8064 22.0624L25.3254 36.5444Z" fill="#5AD6A6"/>
</svg>
