<svg width="73" height="70" viewBox="0 0 73 70" fill="none" xmlns="http://www.w3.org/2000/svg">
<path opacity="0.1" d="M58 0H15C6.71573 0 0 6.71573 0 15V55C0 63.2843 6.71573 70 15 70H58C66.2843 70 73 63.2843 73 55V15C73 6.71573 66.2843 0 58 0Z" fill="#FFE014"/>
<path d="M36.2619 47.6029C43.2842 47.6029 48.9769 42.0776 48.9769 35.2619C48.9769 28.4462 43.2842 22.9209 36.2619 22.9209C29.2396 22.9209 23.5469 28.4462 23.5469 35.2619C23.5469 42.0776 29.2396 47.6029 36.2619 47.6029Z" stroke="#FEB301" stroke-width="2" stroke-miterlimit="10"/>
<path d="M36.262 53.524C46.3478 53.524 54.524 45.3478 54.524 35.262C54.524 25.1762 46.3478 17 36.262 17C26.1762 17 18 25.1762 18 35.262C18 45.3478 26.1762 53.524 36.262 53.524Z" stroke="#FEB301" stroke-width="2" stroke-miterlimit="10"/>
<path d="M22.2881 23.5049L26.5821 27.2609" stroke="#FEB301" stroke-width="2" stroke-miterlimit="10"/>
<path d="M27.1582 19.427L30.2932 24.362" stroke="#FEB301" stroke-width="2" stroke-miterlimit="10"/>
<path d="M43.3472 25.0131L46.3822 20.0591" stroke="#FEB301" stroke-width="2" stroke-miterlimit="10"/>
<path d="M46.3662 27.7711L51.1032 24.6201" stroke="#FEB301" stroke-width="2" stroke-miterlimit="10"/>
<path d="M22.2881 46.8529L26.5821 43.0969" stroke="#FEB301" stroke-width="2" stroke-miterlimit="10"/>
<path d="M27.1582 50.9301L30.2932 45.9951" stroke="#FEB301" stroke-width="2" stroke-miterlimit="10"/>
<path d="M43.3472 45.345L46.3822 50.299" stroke="#FEB301" stroke-width="2" stroke-miterlimit="10"/>
<path d="M46.3662 42.5869L51.1032 45.7379" stroke="#FEB301" stroke-width="2" stroke-miterlimit="10"/>
</svg>
