<svg width="73" height="70" viewBox="0 0 73 70" fill="none" xmlns="http://www.w3.org/2000/svg">
<path opacity="0.1" d="M58 0H15C6.71573 0 0 6.71573 0 15V55C0 63.2843 6.71573 70 15 70H58C66.2843 70 73 63.2843 73 55V15C73 6.71573 66.2843 0 58 0Z" fill="#875FFF"/>
<path d="M47.0962 27.3342H32.5252C32.3154 27.3416 32.1167 27.4301 31.9709 27.5811C31.8251 27.7321 31.7437 27.9338 31.7437 28.1437C31.7437 28.3536 31.8251 28.5553 31.9709 28.7063C32.1167 28.8573 32.3154 28.9459 32.5252 28.9532H47.0972C47.307 28.9459 47.5057 28.8573 47.6515 28.7063C47.7973 28.5553 47.8787 28.3536 47.8787 28.1437C47.8787 27.9338 47.7973 27.7321 47.6515 27.5811C47.5057 27.4301 47.307 27.3416 47.0972 27.3342H47.0962Z" fill="#8056FF"/>
<path d="M27.6712 45.1443C27.1908 45.1443 26.7212 45.2867 26.3217 45.5536C25.9223 45.8206 25.6109 46.1999 25.4271 46.6437C25.2432 47.0876 25.1951 47.576 25.2889 48.0471C25.3826 48.5183 25.6139 48.9512 25.9536 49.2909C26.2933 49.6306 26.7261 49.8619 27.1973 49.9556C27.6685 50.0494 28.1569 50.0012 28.6007 49.8174C29.0446 49.6335 29.4239 49.3222 29.6908 48.9228C29.9577 48.5233 30.1002 48.0537 30.1002 47.5733C30.0994 46.9293 29.8432 46.312 29.3879 45.8566C28.9325 45.4012 28.3152 45.1451 27.6712 45.1443V45.1443ZM27.6712 48.3823C27.5109 48.3825 27.3542 48.3352 27.2209 48.2463C27.0876 48.1574 26.9836 48.031 26.9221 47.883C26.8607 47.735 26.8445 47.5721 26.8756 47.4149C26.9068 47.2577 26.9838 47.1133 27.0971 46.9999C27.2103 46.8865 27.3546 46.8093 27.5118 46.7779C27.6689 46.7466 27.8319 46.7626 27.9799 46.8239C28.128 46.8851 28.2546 46.9889 28.3436 47.1222C28.4327 47.2554 28.4802 47.4121 28.4802 47.5723C28.4802 47.7869 28.395 47.9928 28.2433 48.1447C28.0916 48.2966 27.8858 48.382 27.6712 48.3823V48.3823Z" fill="#8056FF"/>
<path d="M27.6712 38.6672C27.1908 38.6672 26.7212 38.8097 26.3217 39.0766C25.9223 39.3435 25.6109 39.7229 25.4271 40.1667C25.2432 40.6106 25.1951 41.0989 25.2889 41.5701C25.3826 42.0413 25.6139 42.4741 25.9536 42.8138C26.2933 43.1535 26.7261 43.3849 27.1973 43.4786C27.6685 43.5723 28.1569 43.5242 28.6007 43.3404C29.0446 43.1565 29.4239 42.8452 29.6908 42.4457C29.9577 42.0463 30.1002 41.5767 30.1002 41.0963C30.0994 40.4523 29.8432 39.8349 29.3879 39.3795C28.9325 38.9242 28.3152 38.668 27.6712 38.6672ZM27.6712 41.9052C27.5109 41.9052 27.3543 41.8577 27.2211 41.7687C27.0878 41.6796 26.984 41.5531 26.9227 41.405C26.8615 41.2569 26.8455 41.094 26.8768 40.9369C26.9082 40.7797 26.9854 40.6354 27.0988 40.5221C27.2122 40.4089 27.3566 40.3318 27.5138 40.3007C27.671 40.2695 27.8339 40.2857 27.9819 40.3472C28.1298 40.4087 28.2563 40.5126 28.3452 40.646C28.434 40.7793 28.4814 40.936 28.4812 41.0963C28.4809 41.3109 28.3955 41.5167 28.2436 41.6684C28.0917 41.8201 27.8858 41.9052 27.6712 41.9052V41.9052Z" fill="#8056FF"/>
<path d="M27.6712 32.1912C27.1908 32.1912 26.7212 32.3336 26.3217 32.6005C25.9223 32.8674 25.6109 33.2468 25.4271 33.6906C25.2432 34.1345 25.1951 34.6229 25.2889 35.094C25.3826 35.5652 25.6139 35.998 25.9536 36.3377C26.2933 36.6774 26.7261 36.9088 27.1973 37.0025C27.6685 37.0962 28.1569 37.0481 28.6007 36.8643C29.0446 36.6804 29.4239 36.3691 29.6908 35.9697C29.9577 35.5702 30.1002 35.1006 30.1002 34.6202C30.0994 33.9762 29.8432 33.3588 29.3879 32.9035C28.9325 32.4481 28.3152 32.192 27.6712 32.1912V32.1912ZM27.6712 35.4292C27.511 35.4292 27.3544 35.3817 27.2212 35.2927C27.088 35.2037 26.9842 35.0771 26.9228 34.9291C26.8615 34.7811 26.8455 34.6183 26.8768 34.4612C26.908 34.304 26.9852 34.1597 27.0984 34.0464C27.2117 33.9331 27.356 33.856 27.5132 33.8247C27.6703 33.7935 27.8332 33.8095 27.9812 33.8708C28.1292 33.9321 28.2557 34.036 28.3447 34.1692C28.4337 34.3024 28.4812 34.459 28.4812 34.6192C28.4812 34.834 28.3958 35.04 28.2439 35.1919C28.092 35.3438 27.886 35.4292 27.6712 35.4292V35.4292Z" fill="#8056FF"/>
<path d="M27.6712 25.7153C27.1908 25.7153 26.7212 25.8578 26.3217 26.1247C25.9223 26.3916 25.6109 26.771 25.4271 27.2148C25.2432 27.6586 25.1951 28.147 25.2889 28.6182C25.3826 29.0894 25.6139 29.5222 25.9536 29.8619C26.2933 30.2016 26.7261 30.4329 27.1973 30.5267C27.6685 30.6204 28.1569 30.5723 28.6007 30.3884C29.0446 30.2046 29.4239 29.8933 29.6908 29.4938C29.9577 29.0944 30.1002 28.6247 30.1002 28.1443C30.0994 27.5004 29.8432 26.883 29.3879 26.4276C28.9325 25.9723 28.3152 25.7161 27.6712 25.7153V25.7153ZM27.6712 28.9533C27.5109 28.9535 27.3542 28.9062 27.2209 28.8173C27.0876 28.7284 26.9836 28.602 26.9221 28.454C26.8607 28.306 26.8445 28.1431 26.8756 27.9859C26.9068 27.8287 26.9838 27.6843 27.0971 27.5709C27.2103 27.4575 27.3546 27.3803 27.5118 27.349C27.6689 27.3176 27.8319 27.3336 27.9799 27.3949C28.128 27.4562 28.2546 27.56 28.3436 27.6932C28.4327 27.8264 28.4802 27.9831 28.4802 28.1433C28.4802 28.358 28.395 28.5639 28.2433 28.7157C28.0916 28.8676 27.8858 28.9531 27.6712 28.9533V28.9533Z" fill="#8056FF"/>
<path d="M56.613 24.1002C56.0556 24.0988 55.5035 24.208 54.9885 24.4213C54.4736 24.6347 54.0061 24.948 53.613 25.3432L51.38 27.5722L51.144 27.8082V21.6672C51.1432 21.0233 50.887 20.4059 50.4317 19.9506C49.9763 19.4952 49.359 19.239 48.715 19.2382H44.515C44.3487 18.7659 44.0403 18.3567 43.632 18.0668C43.2237 17.7769 42.7357 17.6206 42.235 17.6192H39.366C39.084 17.1272 38.6771 16.7184 38.1864 16.4341C37.6957 16.1497 37.1386 16 36.5715 16C36.0044 16 35.4473 16.1497 34.9566 16.4341C34.4659 16.7184 34.059 17.1272 33.777 17.6192H30.905C30.4043 17.6206 29.9163 17.7769 29.508 18.0668C29.0997 18.3567 28.7913 18.7659 28.625 19.2382H24.425C23.7817 19.2401 23.1654 19.4967 22.7109 19.952C22.2564 20.4072 22.0008 21.024 22 21.6672V52.4292C22.0008 53.0732 22.257 53.6906 22.7123 54.1459C23.1677 54.6013 23.785 54.8575 24.429 54.8582H48.715C49.359 54.8575 49.9763 54.6013 50.4317 54.1459C50.887 53.6906 51.1432 53.0732 51.144 52.4292V39.8102L57.377 33.5772L59.606 31.3482C60.1996 30.7549 60.604 29.9988 60.7678 29.1757C60.9317 28.3525 60.8478 27.4992 60.5266 26.7238C60.2055 25.9483 59.6616 25.2855 58.9637 24.8193C58.2658 24.353 57.4453 24.1042 56.606 24.1042L56.613 24.1002ZM30.1 20.0482C30.1 19.8334 30.1853 19.6274 30.3372 19.4755C30.4891 19.3236 30.6952 19.2382 30.91 19.2382H34.297C34.4642 19.2379 34.6272 19.1859 34.7638 19.0895C34.9003 18.993 35.0038 18.8567 35.06 18.6992C35.1695 18.3842 35.3744 18.111 35.6463 17.9177C35.9181 17.7243 36.2434 17.6205 36.577 17.6205C36.9106 17.6205 37.2359 17.7243 37.5077 17.9177C37.7796 18.111 37.9845 18.3842 38.094 18.6992C38.15 18.8569 38.2534 18.9933 38.39 19.0898C38.5266 19.1863 38.6897 19.2382 38.857 19.2382H42.244C42.4588 19.2382 42.6649 19.3236 42.8168 19.4755C42.9687 19.6274 43.054 19.8334 43.054 20.0482V20.8582H30.1V20.0482ZM49.524 52.4292C49.524 52.6441 49.4387 52.8501 49.2868 53.002C49.1349 53.1539 48.9288 53.2392 48.714 53.2392H24.429C24.2142 53.2392 24.0081 53.1539 23.8562 53.002C23.7043 52.8501 23.619 52.6441 23.619 52.4292V21.6672C23.619 21.5609 23.64 21.4555 23.6807 21.3573C23.7214 21.259 23.781 21.1697 23.8562 21.0945C23.9315 21.0193 24.0208 20.9596 24.119 20.9189C24.2173 20.8782 24.3226 20.8572 24.429 20.8572H28.476V21.6672C28.476 21.8821 28.5613 22.0881 28.7132 22.24C28.8651 22.3919 29.0712 22.4772 29.286 22.4772H43.858C44.0728 22.4772 44.2789 22.3919 44.4308 22.24C44.5827 22.0881 44.668 21.8821 44.668 21.6672V20.8572H48.716C48.8224 20.8572 48.9277 20.8782 49.026 20.9189C49.1242 20.9596 49.2135 21.0193 49.2888 21.0945C49.364 21.1697 49.4236 21.259 49.4643 21.3573C49.505 21.4555 49.526 21.5609 49.526 21.6672V29.4272L45.04 33.9122C44.9261 33.8488 44.7983 33.8144 44.668 33.8122H32.524C32.4153 33.8084 32.3069 33.8265 32.2054 33.8655C32.1038 33.9045 32.0112 33.9635 31.9329 34.039C31.8547 34.1146 31.7925 34.2051 31.75 34.3052C31.7074 34.4053 31.6855 34.513 31.6855 34.6217C31.6855 34.7305 31.7074 34.8382 31.75 34.9383C31.7925 35.0384 31.8547 35.1289 31.9329 35.2045C32.0112 35.28 32.1038 35.339 32.2054 35.378C32.3069 35.417 32.4153 35.4351 32.524 35.4312H43.524L38.667 40.2882H32.524C32.3142 40.2956 32.1155 40.3841 31.9697 40.5351C31.8239 40.6861 31.7425 40.8878 31.7425 41.0977C31.7425 41.3076 31.8239 41.5093 31.9697 41.6604C32.1155 41.8114 32.3142 41.8999 32.524 41.9072H37.964L36.75 46.7632H32.524C32.4153 46.7594 32.3069 46.7775 32.2054 46.8165C32.1038 46.8555 32.0112 46.9145 31.9329 46.99C31.8547 47.0656 31.7925 47.1561 31.75 47.2562C31.7074 47.3563 31.6855 47.464 31.6855 47.5727C31.6855 47.6815 31.7074 47.7892 31.75 47.8893C31.7925 47.9894 31.8547 48.0799 31.9329 48.1555C32.0112 48.231 32.1038 48.29 32.2054 48.329C32.3069 48.368 32.4153 48.3861 32.524 48.3822H37.381C37.4485 48.3828 37.5159 48.3741 37.581 48.3562L44.057 46.7372C44.076 46.7372 44.089 46.7142 44.109 46.7082C44.2095 46.6752 44.3026 46.6229 44.383 46.5542C44.398 46.5412 44.42 46.5392 44.435 46.5252L49.529 41.4252V52.4252L49.524 52.4292ZM39.6 42.0302C40.3784 42.2787 41.086 42.7097 41.6638 43.2875C42.2415 43.8652 42.6726 44.5729 42.921 45.3512L38.491 46.4602L39.6 42.0302ZM44.284 44.3782C43.9474 43.5416 43.4451 42.7816 42.8074 42.1438C42.1697 41.5061 41.4097 41.0039 40.573 40.6672L51.953 29.2892L55.664 33.0002L44.284 44.3782ZM58.47 30.1942L56.809 31.8552L53.1 28.1452L54.761 26.4822C55.2555 26.0006 55.9199 25.7332 56.6102 25.7378C57.3005 25.7425 57.9611 26.0188 58.4491 26.5071C58.9371 26.9953 59.2132 27.6562 59.2174 28.3465C59.2217 29.0368 58.9539 29.701 58.472 30.1952L58.47 30.1942Z" fill="#8056FF"/>
</svg>
