<svg width="73" height="70" viewBox="0 0 73 70" fill="none" xmlns="http://www.w3.org/2000/svg">
<path opacity="0.1" d="M58 0H15C6.71573 0 0 6.71573 0 15V55C0 63.2843 6.71573 70 15 70H58C66.2843 70 73 63.2843 73 55V15C73 6.71573 66.2843 0 58 0Z" fill="#57E5AC"/>
<path d="M54 17H19C16.2386 17 14 19.2386 14 22V43C14 45.7614 16.2386 48 19 48H54C56.7614 48 59 45.7614 59 43V22C59 19.2386 56.7614 17 54 17Z" stroke="#5AD6A6" stroke-width="2" stroke-miterlimit="10"/>
<path d="M14 40.3521H59.151" stroke="#5AD6A6" stroke-width="2" stroke-miterlimit="10"/>
<path d="M38.7148 47.908V53.191" stroke="#5AD6A6" stroke-width="2" stroke-miterlimit="10"/>
<path d="M41.3949 53.1919H30.7979" stroke="#5AD6A6" stroke-width="2" stroke-miterlimit="10" stroke-linecap="round"/>
<path d="M33.439 47.908V53.191" stroke="#5AD6A6" stroke-width="2" stroke-miterlimit="10"/>
<path d="M26.1899 36.1049L30.705 28.364C30.7326 28.3162 30.7712 28.2757 30.8176 28.2458C30.8639 28.2159 30.9167 28.1975 30.9716 28.192C31.0265 28.1866 31.0819 28.1942 31.1332 28.2144C31.1846 28.2345 31.2305 28.2666 31.267 28.308L34.717 32.2169C34.7527 32.2579 34.7975 32.2899 34.8479 32.3103C34.8983 32.3307 34.9527 32.3389 35.0068 32.3343C35.061 32.3297 35.1133 32.3125 35.1595 32.2839C35.2058 32.2554 35.2446 32.2163 35.2729 32.17L37.212 29.0509C37.2413 29.0032 37.2818 28.9632 37.33 28.9346C37.3781 28.906 37.4326 28.8895 37.4886 28.8865C37.5446 28.8836 37.6004 28.8943 37.6514 28.9177C37.7023 28.9411 37.7467 28.9765 37.7809 29.021L41.126 33.287C41.1596 33.3298 41.2027 33.3641 41.252 33.3872C41.3013 33.4104 41.3553 33.4217 41.4097 33.4202C41.4641 33.4187 41.5175 33.4046 41.5654 33.3789C41.6134 33.3531 41.6547 33.3165 41.686 33.2719L47.3959 25.095" stroke="#5AD6A6" stroke-width="2" stroke-miterlimit="10" stroke-linecap="round"/>
</svg>
